<svg xmlns="http://www.w3.org/2000/svg" viewBox="0 0 162.59 154.11"><defs><style>.cls-1{fill:#fff;}</style></defs><g id="Layer_2" data-name="Layer 2"><g id="Layer_1-2" data-name="Layer 1"><path class="cls-1" d="M77.06,0A76.69,76.69,0,0,0,31.62,14.86L49,32.2a52.81,52.81,0,0,1,56.54.21L122.81,15.1A76.54,76.54,0,0,0,77.06,0Z"/><path class="cls-1" d="M162.59,34.06,143.31,14.8,77.43,80.69l-.09.08L21,24.26A77,77,0,1,0,154.11,77.05a76.44,76.44,0,0,0-5.62-28.88ZM130,77.05a53,53,0,1,1-105.91,0,52.35,52.35,0,0,1,.95-10l52.17,52.17.12-.11.11.11,51.69-51.69A51.58,51.58,0,0,1,130,77.05Z"/></g></g></svg>